<svg xmlns="http://www.w3.org/2000/svg" viewBox="0 0 512 512" width="512" height="512">
  <g transform="translate(256,256)">
    <circle cx="0" cy="0" r="225" fill="#626880"/>
    <circle cx="0" cy="0" r="208" fill="#303446"/>
    <path d="M -61.8,25.8 L -62.4,25.4 L -63.2,25.1 L -64.2,24.9 L -65.4,24.7 L -66.9,24.6 L -68.6,24.4 L -70.6,24.2 L -72.8,23.9 L -75.2,23.5 L -77.9,22.9 L -80.8,22.1 L -83.9,21.0 L -87.1,19.6 L -90.5,18.0 L -94.1,15.9 L -97.6,13.5 L -101.3,10.8 L -104.9,7.6 L -108.4,3.9 L -111.8,-0.1 L -115.1,-4.6 L -118.2,-9.5 L -121.0,-14.8 L -123.5,-20.5 L -125.7,-26.6 L -127.5,-33.1 L -128.8,-39.9 L -129.6,-47.0 L -130.0,-54.3 L -129.7,-61.8 L -128.9,-69.5 L -127.5,-77.3 L -125.4,-85.2 L -122.7,-93.1 L -119.4,-100.8 L -115.3,-108.5 L -110.7,-116.0 L -105.4,-123.2 L -99.4,-130.1 L -92.8,-136.7 L -85.7,-142.8 L -78.0,-148.4 L -69.8,-153.5 L -61.1,-158.1 L -51.9,-161.9 L -42.5,-165.2 L -32.6,-167.7 L -22.6,-169.4 L -12.3,-170.4 L -2.0,-170.6 L 8.5,-170.0 L 18.9,-168.6 L 29.3,-166.4 L 39.4,-163.4 L 49.4,-159.6 L 59.1,-155.1 L 68.4,-149.8 L 77.4,-143.7 L 85.8,-137.0 L 93.7,-129.7 L 101.0,-121.8 L 107.7,-113.4 L 113.8,-104.4 L 119.1,-95.1 L 123.6,-85.4 L 127.4,-75.4 L 130.4,-65.3 L 132.6,-54.9 L 134.0,-44.5 L 134.6,-34.0 L 134.4,-23.7 L 133.4,-13.4 L 131.7,-3.4 L 129.2,6.5 L 125.9,15.9 L 122.1,25.1 L 117.5,33.8 L 112.4,42.0 L 106.8,49.7 L 100.7,56.8 L 94.1,63.4 L 87.2,69.4 L 80.0,74.7 L 72.5,79.3 L 64.8,83.4 L 57.1,86.7 L 49.2,89.4 L 41.3,91.5 L 33.5,92.9 L 25.8,93.7 L 18.3,94.0 L 11.0,93.6 L 3.9,92.8 L -2.9,91.5 L -9.4,89.7 L -15.5,87.5 L -21.2,85.0 L -26.5,82.2 L -31.4,79.1 L -35.9,75.8 L -39.9,72.4 L -43.6,68.9 L -46.8,65.3 L -49.5,61.6 L -51.9,58.1 L -54.0,54.5 L -55.6,51.1 L -57.0,47.9 L -58.1,44.8 L -58.9,41.9 L -59.5,39.2 L -59.9,36.8 L -60.2,34.6 L -60.4,32.6 L -60.6,30.9 L -60.7,29.4 L -60.9,28.2 L -61.1,27.2 L -61.4,26.4 L -61.8,25.8 Z" fill="#ca9ee6" fill-opacity="0.27" stroke="#ca9ee6" stroke-width="8" stroke-linejoin="round" opacity="0.9"/>
    <path d="M 55.0,86.5 L 54.6,87.1 L 54.3,88.2 L 54.1,89.9 L 53.9,92.2 L 53.4,95.1 L 52.6,98.5 L 51.4,102.5 L 49.6,106.8 L 47.2,111.5 L 44.0,116.5 L 40.1,121.6 L 35.3,126.6 L 29.7,131.5 L 23.2,136.2 L 15.9,140.4 L 7.8,144.0 L -1.0,147.0 L -10.5,149.1 L -20.6,150.3 L -31.0,150.6 L -41.7,149.7 L -52.6,147.7 L -63.5,144.5 L -74.2,140.2 L -84.6,134.7 L -94.5,128.1 L -103.7,120.4 L -112.3,111.8 L -119.9,102.3 L -126.6,92.0 L -132.1,81.1 L -136.6,69.7 L -139.8,58.0 L -141.8,46.1 L -142.5,34.3 L -142.1,22.5 L -140.5,11.1 L -137.8,0.1 L -134.1,-10.3 L -129.5,-20.0 L -124.1,-29.0 L -118.0,-37.0 L -111.4,-44.2 L -104.4,-50.4 L -97.2,-55.6 L -89.9,-59.8 L -82.7,-63.1 L -75.6,-65.5 L -68.8,-67.1 L -62.5,-68.0 L -56.6,-68.3 L -51.3,-68.0 L -46.6,-67.3 L -42.6,-66.4 L -39.2,-65.4 L -36.5,-64.4 L -34.4,-63.4 L -32.8,-62.8 L -31.7,-62.4 L -31.0,-62.5 L -30.6,-63.1 L -30.3,-64.2 L -30.1,-65.9 L -29.9,-68.2 L -29.4,-71.1 L -28.6,-74.5 L -27.4,-78.5 L -25.6,-82.8 L -23.2,-87.5 L -20.0,-92.5 L -16.1,-97.6 L -11.3,-102.6 L -5.7,-107.5 L 0.8,-112.2 L 8.1,-116.4 L 16.2,-120.0 L 25.0,-123.0 L 34.5,-125.1 L 44.6,-126.3 L 55.0,-126.6 L 65.7,-125.7 L 76.6,-123.7 L 87.5,-120.5 L 98.2,-116.2 L 108.6,-110.7 L 118.5,-104.1 L 127.7,-96.4 L 136.3,-87.8 L 143.9,-78.3 L 150.6,-68.0 L 156.1,-57.1 L 160.6,-45.7 L 163.8,-34.0 L 165.8,-22.1 L 166.5,-10.3 L 166.1,1.5 L 164.5,12.9 L 161.8,23.9 L 158.1,34.3 L 153.5,44.0 L 148.1,53.0 L 142.0,61.0 L 135.4,68.2 L 128.4,74.4 L 121.2,79.6 L 113.9,83.8 L 106.7,87.1 L 99.6,89.5 L 92.8,91.1 L 86.5,92.0 L 80.6,92.3 L 75.3,92.0 L 70.6,91.3 L 66.6,90.4 L 63.2,89.4 L 60.5,88.4 L 58.4,87.4 L 56.8,86.8 L 55.7,86.4 L 55.0,86.5 Z" fill="#81c8be" fill-opacity="0.27" stroke="#81c8be" stroke-width="7" stroke-linejoin="round" opacity="0.9"/>
  </g>
</svg>
